<svg xmlns="http://www.w3.org/2000/svg" width="514.202" height="584.713" viewBox="0 0 514.202 584.713" fill="none">
  <path d="M 77.918 113.681 C 78.718 109.922 82.408 107.521 86.167 108.321 L 429.699 181.338 C 433.459 182.138 435.861 185.827 435.06 189.586 L 429.247 217.011 C 427.158 226.755 424.339 236.152 420.858 245.166 L 491.59 230.131 C 495.35 229.331 499.039 231.732 499.84 235.491 L 508.577 276.593 C 538.965 419.459 443.101 559.923 296.311 581.988 C 160.938 602.313 35.242 506.605 6.837 373.032 L 0.154 341.674 C -0.647 337.916 1.755 334.227 5.515 333.426 L 123.309 308.403 C 79.971 264.238 59.887 198.391 73.532 134.145 L 77.883 113.716 L 77.918 113.681 Z M 342.572 0.154 C 346.331 -0.647 350.021 1.755 350.822 5.514 L 352.806 14.771 C 363.005 62.729 330.841 109.887 281.551 117.3 C 236.125 124.122 193.902 91.999 184.364 47.138 L 183.076 41.152 C 182.276 37.393 184.677 33.704 188.437 32.903 L 342.572 0.154 Z" fill="currentColor" fill-rule="nonzero"/>
</svg>
