<svg width="385" height="101" viewBox="0 0 385 101" fill="none" xmlns="http://www.w3.org/2000/svg">
<path d="M13.3681 19.505C13.5054 18.8602 14.1383 18.448 14.7831 18.585L73.7216 31.1124C74.3666 31.2497 74.7789 31.8826 74.6415 32.5274L73.6445 37.2325C73.2861 38.9044 72.8022 40.5171 72.205 42.0636L84.3398 39.4835C84.9848 39.3461 85.6184 39.7585 85.7558 40.4034L87.2548 47.4552C92.4682 71.9659 76.0209 96.0651 50.8369 99.8507C27.6115 103.338 6.04599 86.9167 1.17279 64.0001L0.026306 58.6202C-0.110761 57.9755 0.301397 57.3425 0.946228 57.2052L21.1562 52.9122C13.721 45.335 10.2751 34.0381 12.6161 23.0157L13.3622 19.5108L13.3681 19.505ZM58.7734 0.0274235C59.4184 -0.109909 60.052 0.302479 60.1894 0.947345L60.5292 2.53524C62.2791 10.7633 56.7611 18.8542 48.3046 20.1261C40.5111 21.2963 33.2671 15.7845 31.6308 8.08797L31.4101 7.0616C31.2728 6.41684 31.6842 5.78305 32.329 5.64559L58.7734 0.0274235Z" fill="#2AC864"/>
<path d="M372.041 32.2998C372.041 32.0307 372.23 31.7995 372.495 31.7427L383.312 29.5028C383.547 29.4535 383.767 29.6354 383.767 29.8742V81.3275C383.767 81.5359 383.596 81.7065 383.388 81.7065H372.42C372.211 81.7065 372.041 81.5359 372.041 81.3275V32.2998Z" fill="#0E3727"/>
<path d="M317.112 32.296C317.112 32.0269 317.298 31.7957 317.563 31.7388L327.985 29.5027C328.22 29.4535 328.444 29.6316 328.444 29.8741V36.5711C330.907 32.8266 336.426 28.6879 344.506 28.6879C356.627 28.6879 363.327 36.9653 363.327 47.9033V81.3236C363.327 81.5321 363.157 81.7026 362.948 81.7026H351.98C351.772 81.7026 351.601 81.5321 351.601 81.3236V50.2682C351.601 44.0602 347.856 39.2317 341.156 39.2317C334.455 39.2317 328.838 44.4543 328.838 51.8449V81.3236C328.838 81.5321 328.668 81.7026 328.459 81.7026H317.491C317.282 81.7026 317.112 81.5321 317.112 81.3236V32.296Z" fill="#0E3727"/>
<path d="M233.505 81.3236V32.296C233.505 32.0269 233.69 31.7957 233.956 31.7388L244.378 29.5027C244.613 29.4535 244.837 29.6316 244.837 29.8741V36.5711C247.005 32.9251 251.932 28.6879 259.618 28.6879C266.417 28.6879 271.541 31.9397 274.301 37.1623C276.961 33.1222 283.071 28.6879 290.757 28.6879C302.089 28.6879 308.396 36.8667 308.396 47.9033V81.3236C308.396 81.5321 308.225 81.7026 308.017 81.7026H297.048C296.84 81.7026 296.669 81.5321 296.669 81.3236V49.7755C296.669 43.4689 293.319 39.2317 287.603 39.2317C281.888 39.2317 276.764 43.7646 276.764 51.2536V81.3236C276.764 81.5321 276.593 81.7026 276.385 81.7026H265.417C265.208 81.7026 265.038 81.5321 265.038 81.3236V49.7755C265.038 43.5675 261.786 39.2317 256.071 39.2317C250.06 39.2317 245.231 43.7646 245.231 51.2536V81.3236C245.231 81.5321 245.061 81.7026 244.852 81.7026L233.88 81.6913C233.672 81.6913 233.501 81.5207 233.501 81.3123L233.505 81.3236Z" fill="#0E3727"/>
<path d="M201.081 83.1807C186.3 83.1807 174.672 73.2281 174.672 55.885C174.672 38.5419 186.402 28.6879 201.081 28.6879C215.76 28.6879 227.49 38.6405 227.49 55.885C227.49 73.1296 215.764 83.1807 201.081 83.1807ZM186.399 55.885C186.399 67.3157 193.297 72.7354 201.081 72.7354C208.866 72.7354 215.764 67.3157 215.764 55.885C215.764 44.4543 208.767 39.0346 201.081 39.0346C193.395 39.0346 186.399 44.4543 186.399 55.885Z" fill="#0E3727"/>
<path d="M122.396 81.3235V32.2958C122.396 32.0268 122.582 31.7956 122.847 31.7387L133.27 29.5026C133.505 29.4533 133.728 29.6315 133.728 29.874V36.571C136.192 32.8227 141.71 28.684 149.79 28.684C161.911 28.684 168.611 36.9614 168.611 47.8993V81.3197C168.611 81.5282 168.441 81.6987 168.232 81.6987H157.264C157.056 81.6987 156.885 81.5282 156.885 81.3197V50.2643C156.885 44.0563 153.141 39.2278 146.44 39.2278C139.739 39.2278 134.122 44.4504 134.122 51.841V81.3197C134.122 81.5282 133.952 81.6987 133.743 81.6987H122.775C122.567 81.6987 122.396 81.5244 122.396 81.3159V81.3235Z" fill="#0E3727"/>
<path d="M369.077 15.1764L369.286 16.1618C370.15 20.2285 373.978 23.1431 378.097 22.5253C382.566 21.8544 385.484 17.5755 384.559 13.2246L384.286 11.9398C384.241 11.7313 384.033 11.5949 383.824 11.6403L369.377 14.7103C369.168 14.7557 369.032 14.9642 369.077 15.1726V15.1764Z" fill="#0E3727"/>
</svg>
