<svg width="603" height="158" viewBox="0 0 603 158" fill="none" xmlns="http://www.w3.org/2000/svg">
<path d="M20.9404 30.5522C21.1558 29.5423 22.148 28.8967 23.1582 29.1118L115.483 48.7358C116.494 48.951 117.139 49.9425 116.924 50.9526L115.362 58.3228C114.801 60.9417 114.043 63.4676 113.107 65.8901L132.117 61.8491C133.127 61.6341 134.119 62.2796 134.334 63.2896L136.683 74.3364C144.849 112.732 119.085 150.483 79.6348 156.413C43.2527 161.875 9.47168 136.153 1.83789 100.254L0.0410156 91.8267C-0.173884 90.8166 0.472208 89.825 1.48242 89.6099L33.1396 82.8853C21.4925 71.0158 16.0945 53.3187 19.7617 36.0522L20.9316 30.562L20.9404 30.5522ZM92.0674 0.0415039C93.0777 -0.173607 94.0699 0.471908 94.2852 1.48193L94.8184 3.97021C97.5594 16.8592 88.9148 29.5336 75.668 31.5259C63.4598 33.359 52.1123 24.7257 49.5488 12.6694L49.2021 11.0601C48.9871 10.05 49.6333 9.05838 50.6436 8.84326L92.0674 0.0415039Z" fill="#2AC864"></path>
<path d="M582.792 50.5968C582.792 50.1753 583.089 49.8131 583.504 49.7241L600.449 46.2153C600.817 46.1381 601.161 46.4231 601.161 46.7971V127.398C601.161 127.724 600.894 127.991 600.567 127.991H583.386C583.059 127.991 582.792 127.724 582.792 127.398V50.5968Z" fill="white"></path>
<path d="M496.747 50.591C496.747 50.1695 497.038 49.8073 497.454 49.7182L513.78 46.2154C514.148 46.1382 514.499 46.4173 514.499 46.7972V57.2879C518.358 51.4222 527.002 44.939 539.66 44.939C558.646 44.939 569.143 57.9053 569.143 75.0395V127.392C569.143 127.718 568.876 127.986 568.549 127.986H551.367C551.041 127.986 550.774 127.718 550.774 127.392V78.7442C550.774 69.0194 544.908 61.4557 534.411 61.4557C523.915 61.4557 515.116 69.6368 515.116 81.214V127.392C515.116 127.718 514.849 127.986 514.522 127.986H497.341C497.014 127.986 496.747 127.718 496.747 127.392V50.591Z" fill="white"></path>
<path d="M365.778 127.392V50.591C365.778 50.1695 366.069 49.8073 366.485 49.7182L382.812 46.2154C383.18 46.1382 383.53 46.4173 383.53 46.7972V57.2879C386.926 51.5765 394.644 44.939 406.684 44.939C417.335 44.939 425.362 50.0329 429.684 58.2141C433.852 51.8852 443.422 44.939 455.463 44.939C473.214 44.939 483.093 57.751 483.093 75.0395V127.392C483.093 127.718 482.826 127.986 482.5 127.986H465.318C464.991 127.986 464.724 127.718 464.724 127.392V77.9724C464.724 68.0932 459.476 61.4557 450.523 61.4557C441.57 61.4557 433.543 68.5563 433.543 80.2878V127.392C433.543 127.718 433.276 127.986 432.949 127.986H415.768C415.441 127.986 415.174 127.718 415.174 127.392V77.9724C415.174 68.2476 410.08 61.4557 401.127 61.4557C391.711 61.4557 384.147 68.5563 384.147 80.2878V127.392C384.147 127.718 383.88 127.986 383.554 127.986L366.366 127.968C366.04 127.968 365.772 127.701 365.772 127.374L365.778 127.392Z" fill="white"></path>
<path d="M314.987 130.301C291.833 130.301 273.618 114.71 273.618 87.5428C273.618 60.3751 291.993 44.939 314.987 44.939C337.981 44.939 356.356 60.5295 356.356 87.5428C356.356 114.556 337.987 130.301 314.987 130.301ZM291.987 87.5428C291.987 105.449 302.793 113.939 314.987 113.939C327.182 113.939 337.987 105.449 337.987 87.5428C337.987 69.6368 327.027 61.1469 314.987 61.1469C302.947 61.1469 291.987 69.6368 291.987 87.5428Z" fill="white"></path>
<path d="M191.729 127.391V50.5906C191.729 50.169 192.019 49.8069 192.435 49.7178L208.762 46.215C209.13 46.1378 209.48 46.4169 209.48 46.7968V57.2875C213.339 51.4158 221.983 44.9326 234.641 44.9326C253.628 44.9326 264.124 57.899 264.124 75.0332V127.386C264.124 127.712 263.857 127.979 263.53 127.979H246.349C246.022 127.979 245.755 127.712 245.755 127.386V78.7378C245.755 69.013 239.889 61.4493 229.393 61.4493C218.896 61.4493 210.098 69.6305 210.098 81.2076V127.386C210.098 127.712 209.83 127.979 209.504 127.979H192.322C191.996 127.979 191.729 127.706 191.729 127.38V127.391Z" fill="white"></path>
<path d="M578.149 23.7736L578.476 25.3172C579.83 31.6876 585.826 36.2532 592.279 35.2855C599.279 34.2346 603.851 27.5317 602.402 20.7161L601.975 18.7034C601.903 18.3769 601.577 18.1632 601.25 18.2344L578.618 23.0434C578.292 23.1146 578.078 23.4412 578.149 23.7677V23.7736Z" fill="white"></path>
</svg>