<svg width="22" height="22" viewBox="0 0 22 22" fill="none" xmlns="http://www.w3.org/2000/svg">
<path fill-rule="evenodd" clip-rule="evenodd" d="M17.7951 9.50683C17.0965 9.86827 16.8312 10.7598 17.1927 11.4586C17.7228 12.4707 18.0119 13.6032 18.0119 14.7598C18.0119 15.555 18.6628 16.2056 19.4577 16.2056C20.2529 16.2056 20.9035 15.555 20.9035 14.7598C20.9035 13.1454 20.4939 11.5307 19.7471 10.1092C19.3857 9.41044 18.518 9.12104 17.7951 9.50683" fill="#2AC864"/>
<path fill-rule="evenodd" clip-rule="evenodd" d="M12.1084 7.79582C12.9036 7.9163 13.6506 7.38642 13.7711 6.591C13.8916 5.79582 13.3614 5.04907 12.5663 4.92859C12.0361 4.83196 11.4819 4.80811 10.9518 4.80811C5.45783 4.80811 1 9.26594 1 14.7597C1 15.5549 1.6506 16.2055 2.44578 16.2055C3.24096 16.2055 3.89157 15.5549 3.89157 14.7597C3.89157 10.8561 7.07229 7.69967 10.9518 7.69967C11.3373 7.69967 11.7229 7.72353 12.1084 7.79582" fill="#2AC864"/>
<path fill-rule="evenodd" clip-rule="evenodd" d="M13.8124 15.853C13.8124 17.433 12.5316 18.7135 10.9519 18.7135C9.37212 18.7135 8.0914 17.433 8.0914 15.853C8.0914 14.2733 9.37212 12.9928 10.9519 12.9928C12.5316 12.9928 13.8124 14.2733 13.8124 15.853" fill="#2AC864"/>
<mask id="mask0_1992_8077" style="mask-type:luminance" maskUnits="userSpaceOnUse" x="11" y="4" width="8" height="10">
<path fill-rule="evenodd" clip-rule="evenodd" d="M11.1724 4.24109H18.6057V13.3187H11.1724V4.24109Z" fill="white"/>
</mask>
<g mask="url(#mask0_1992_8077)">
<path fill-rule="evenodd" clip-rule="evenodd" d="M18.47 4.32618C18.3251 4.2057 18.0842 4.2057 17.9637 4.37438L11.1724 12.2843C11.177 12.2843 11.1813 12.2835 11.1859 12.2835C12.103 12.2835 12.9242 12.685 13.4909 13.3187L18.5661 4.78401C18.6384 4.63944 18.6145 4.44666 18.47 4.32618" fill="#2AC864"/>
</g>
</svg>
