<svg width="33" height="33" viewBox="0 0 33 33" fill="none" xmlns="http://www.w3.org/2000/svg">
<g id="Colour=Nomni Green, Size=22, Type=Default">
<g id="OLD/Icon/Invoice-small">
<path id="Combined Shape" d="M3.375 6.41554C3.375 2.38002 9 3.04054 7.125 3.04054H25.6055C26.2692 3.09644 29.625 3.54471 29.625 6.41554V31.1655L26.8125 28.353L24 31.2695L20.25 28.353L16.5 31.2695L12.75 28.353L9 31.2695L6.1875 28.353L3.375 31.1655V6.41554ZM6.1875 5.85304V24.603L9 27.4155L12.75 24.603L16.5 27.4155L20.25 24.603L24 27.4155L26.8125 24.603V5.85304H6.1875Z" fill="#2AC864"/>
<path id="Fill 8" fill-rule="evenodd" clip-rule="evenodd" d="M21.1875 17.0597H24V14.25H21.1875V17.0597Z" fill="#2AC864"/>
<path id="Fill 8_2" fill-rule="evenodd" clip-rule="evenodd" d="M9 17.0597H19.3125V14.25H9V17.0597Z" fill="#2AC864"/>
<path id="Fill 8_3" fill-rule="evenodd" clip-rule="evenodd" d="M21.1875 11.4347H24V8.625H21.1875V11.4347Z" fill="#2AC864"/>
<path id="Fill 8_4" fill-rule="evenodd" clip-rule="evenodd" d="M9 11.4347H19.3125V8.625H9V11.4347Z" fill="#2AC864"/>
<path id="Fill 8_5" fill-rule="evenodd" clip-rule="evenodd" d="M5.25 21.7481H29.625V19.875H5.25V21.7481Z" fill="#2AC864"/>
<rect id="Rectangle 16" x="1.5" y="3" width="30" height="2.8125" fill="#2AC864"/>
</g>
</g>
</svg>
