<svg width="33" height="33" viewBox="0 0 33 33" fill="none" xmlns="http://www.w3.org/2000/svg">
<g id="Colour=Grey (sidenav), Size=22, Type=Default">
<g id="OLD/Icon/Invoice-small">
<path id="Combined Shape" d="M3.375 6.41471C3.37558 2.37989 8.9999 3.03971 7.125 3.03971H25.5938C26.2285 3.09124 29.6245 3.52712 29.625 6.41471V31.1647L26.8125 28.3522L24 31.2702L20.25 28.3522L16.5 31.2702L12.75 28.3522L9 31.2702L6.1875 28.3522L3.375 31.1647V6.41471ZM6.1875 5.85221V24.6022L9 27.4147L12.75 24.6022L16.5 27.4147L20.25 24.6022L24 27.4147L26.8125 24.6022V5.85221H6.1875Z" fill="#888888"/>
<path id="Fill 8" fill-rule="evenodd" clip-rule="evenodd" d="M21.1875 17.0597H24V14.25H21.1875V17.0597Z" fill="#888888"/>
<path id="Fill 8_2" fill-rule="evenodd" clip-rule="evenodd" d="M9 17.0597H19.3125V14.25H9V17.0597Z" fill="#888888"/>
<path id="Fill 8_3" fill-rule="evenodd" clip-rule="evenodd" d="M21.1875 11.4347H24V8.625H21.1875V11.4347Z" fill="#888888"/>
<path id="Fill 8_4" fill-rule="evenodd" clip-rule="evenodd" d="M9 11.4347H19.3125V8.625H9V11.4347Z" fill="#888888"/>
<path id="Fill 8_5" fill-rule="evenodd" clip-rule="evenodd" d="M5.25 21.7481H29.625V19.875H5.25V21.7481Z" fill="#888888"/>
<rect id="Rectangle 16" x="1.5" y="3" width="30" height="2.8125" fill="#888888"/>
</g>
</g>
</svg>
