<svg width="33" height="33" viewBox="0 0 33 33" fill="none" xmlns="http://www.w3.org/2000/svg">
<g id="Colour=Nomni Green, Size=22">
<path id="Fill 1" fill-rule="evenodd" clip-rule="evenodd" d="M6 27.0001H27V6.00008H6V27.0001ZM27 3.00008H6C6 3.00008 3 2.94158 3 6.00008V27.0001C3 29.9656 6 30.0001 6 30.0001H27C27 30.0001 30 29.8171 30 27.0946V5.90708C30 3.09008 27 3.00008 27 3.00008V3.00008ZM18 24.0001H24V18.0001H18V24.0001ZM18 15.0001H24V9.00008H18V15.0001ZM9 24.0001H15V18.0001H9V24.0001ZM9 15.0001H15V9.00008H9V15.0001Z" fill="#2AC864"/>
</g>
</svg>
