<svg width="33" height="33" viewBox="0 0 33 33" fill="none" xmlns="http://www.w3.org/2000/svg">
<g id="Colour=Nomni Green, Size=22, Type=Default">
<path id="Fill 1" fill-rule="evenodd" clip-rule="evenodd" d="M6 27.0001H27V6.00008H6V27.0001ZM27 3.00008H6C6 3.00008 3 2.94158 3 6.00007V27C3 29.9655 6 30 6 30H27C27 30 30 29.817 30 27.0945V5.90707C30 3.09008 27 3.00008 27 3.00008V3.00008ZM13.5 24.0001H24V21.0001H13.5V24.0001ZM13.5 18.0001H24V15.0001H13.5V18.0001ZM13.5 12.0001H24V9.00008H13.5V12.0001ZM9 24.0001H12V21.0001H9V24.0001ZM9 18.0001H12V15.0001H9V18.0001ZM9 12.0001H12V9.00008H9V12.0001Z" fill="#2AC864"/>
</g>
</svg>
