<svg width="22" height="22" viewBox="0 0 22 22" fill="none" xmlns="http://www.w3.org/2000/svg">
<rect x="3" y="14" width="10" height="2" fill="#2AC864"/>
<rect x="3" y="12" width="9" height="2" fill="#2AC864"/>
<rect x="3" y="10" width="7" height="2" fill="#2AC864"/>
<rect x="5" y="6" width="3" height="2" fill="#2AC864"/>
<path d="M15 2C15.572 2 16 2.42801 16 3V5.40527L18.5889 8.36426C19.4489 9.34753 20 10.6105 20 11.917V20H18V12.9111L16.3994 14.3633L11.4053 9.36914C11.209 9.17907 10.8971 9.17844 10.7012 9.36816C10.5009 9.56265 10.4962 9.88246 10.6836 10.0762L14.3896 13.7822C14.7183 14.1119 14.7863 14.6211 14.5557 15.0264L14.1963 15.6562C13.5672 16.748 13.6733 17.1139 14.4658 18.0967C14.6124 18.2804 14.6923 18.5083 14.6924 18.7432V20H12.6201V19.0508C12.1225 18.1681 11.9345 17.704 11.7979 17.0459C11.5962 15.8873 11.7984 15.6992 12.3711 14.6787C12.0533 14.3471 8.72266 10.8252 8.72266 10.8252C8.2509 9.84295 8.44897 8.67006 9.21875 7.89551C10.2253 6.89062 11.8557 6.89032 12.8633 7.89551L13.9277 8.96094L14 4H4V20H2V3C2 2.42796 2.42764 2 3 2H15ZM16 11.0322L18 12.8857V11.917C18 11.112 17.5594 10.334 17.0293 9.72852L16 8.55273V11.0322Z" fill="#2AC864"/>
</svg>
